<svg width="25" height="20" viewBox="0 0 25 20" fill="none" xmlns="http://www.w3.org/2000/svg">
<path d="M12.5596 0.888672L12.6172 0.910156L23.0732 6.43555C23.2458 6.52677 23.2518 6.77136 23.084 6.87109L12.6279 13.0869C12.5492 13.1337 12.4508 13.1337 12.3721 13.0869L1.91602 6.87109C1.74823 6.77136 1.75423 6.52678 1.92676 6.43555L12.3828 0.910156C12.4376 0.881208 12.5007 0.874214 12.5596 0.888672Z" stroke="#06003A" stroke-width="1.5"/>
<path d="M20.834 13.0723L20.8271 13.2666C20.765 14.2289 20.2427 15.108 19.417 15.6211L14.084 18.9346L13.8984 19.041C13.0238 19.5019 11.9761 19.502 11.1016 19.041L10.917 18.9346L5.58398 15.6211C4.75816 15.108 4.23503 14.229 4.17285 13.2666L4.16699 13.0723V9L5.66699 9.8916V13.0723C5.66699 13.5907 5.93471 14.073 6.375 14.3467L11.709 17.6602L11.8965 17.7598C12.3452 17.957 12.8681 17.9236 13.292 17.6602L18.625 14.3467C19.0653 14.073 19.334 13.5908 19.334 13.0723V9.8916L20.834 9V13.0723Z" fill="#06003A"/>
<line x1="22.1647" y1="7.36816" x2="22.1647" y2="14.7986" stroke="#06003A" stroke-width="1.5"/>
<ellipse cx="22.2174" cy="15.3519" rx="1.30208" ry="1.31579" fill="#06003A"/>
</svg>
