<svg width="22" height="22" viewBox="0 0 22 22" fill="none" xmlns="http://www.w3.org/2000/svg">
<path d="M21.2497 10.807C21.2512 10.5956 21.2081 10.3862 21.1234 10.1921C21.0386 9.9981 20.914 9.82364 20.7574 9.67989L11.2498 0.998047L1.7421 9.67989C1.58552 9.82364 1.46089 9.9981 1.37613 10.1921C1.29137 10.3862 1.24835 10.5956 1.24979 10.807V19.2756C1.24979 19.6796 1.41188 20.067 1.70039 20.3526C1.98891 20.6383 2.38022 20.7987 2.78825 20.7987H19.7113C20.1193 20.7987 20.5106 20.6383 20.7991 20.3526C21.0876 20.067 21.2497 19.6796 21.2497 19.2756V10.807Z" stroke="#000001" stroke-width="1.5" stroke-linecap="round" stroke-linejoin="round"/>
<path d="M8.23389 21V12.7656H14.2655V21" stroke="black" stroke-width="1.5" stroke-linejoin="round"/>
</svg>
