<svg width="22" height="22" viewBox="0 0 22 22" fill="none" xmlns="http://www.w3.org/2000/svg">
<path d="M5.61466 1H1.76911C1.34434 1 1 1.34429 1 1.769V20.225C1 20.6497 1.34434 20.9939 1.76911 20.9939H5.61466C6.03942 20.9939 6.38377 20.6497 6.38377 20.225V1.769C6.38377 1.34429 6.03942 1 5.61466 1Z" stroke="#06003A" stroke-width="1.5" stroke-linecap="round" stroke-linejoin="round"/>
<path d="M10.9984 4.07617H7.1529C6.72813 4.07617 6.38379 4.42046 6.38379 4.84517V20.2251C6.38379 20.6498 6.72813 20.9941 7.1529 20.9941H10.9984C11.4232 20.9941 11.7676 20.6498 11.7676 20.2251V4.84517C11.7676 4.42046 11.4232 4.07617 10.9984 4.07617Z" stroke="#06003A" stroke-width="1.5" stroke-linecap="round" stroke-linejoin="round"/>
<path d="M16.1463 3.65445L13.1619 4.4012C12.7498 4.50431 12.4994 4.92188 12.6025 5.33388L16.3368 20.2537C16.4399 20.6657 16.8576 20.9161 17.2696 20.813L20.254 20.0663C20.6661 19.9632 20.9165 19.5456 20.8134 19.1336L17.0791 4.21375C16.976 3.80175 16.5583 3.55134 16.1463 3.65445Z" stroke="#06003A" stroke-width="1.5" stroke-linecap="round" stroke-linejoin="round"/>
<path d="M1 15.6113H6.38377" stroke="#06003A" stroke-width="1.5" stroke-linecap="round" stroke-linejoin="round"/>
<path d="M6.38379 14.0732H11.7676" stroke="#06003A" stroke-width="1.5" stroke-linecap="round" stroke-linejoin="round"/>
<path d="M15.613 17.1493L20.0431 16.042" stroke="#06003A" stroke-width="1.5" stroke-linecap="round" stroke-linejoin="round"/>
</svg>
