<svg width="110" height="110" viewBox="0 0 110 110" fill="none" xmlns="http://www.w3.org/2000/svg">
<path d="M82.7502 54.9878C82.7502 54.9945 82.7557 55 82.7625 55H104.75C107.512 55 109.75 57.2386 109.75 60V82.3516C109.75 82.4206 109.806 82.4766 109.875 82.4766C109.944 82.4766 110 82.5325 110 82.6016V104.977C110 107.738 107.762 109.977 105 109.977H60.0002C57.2388 109.977 55.0002 107.738 55.0002 104.977V87.1006C55.0002 87.0316 54.9443 86.9756 54.8752 86.9756C54.8062 86.9756 54.7502 86.9196 54.7502 86.8506V59.9756C54.7502 57.2142 56.9888 54.9756 59.7502 54.9756H82.738C82.7448 54.9756 82.7502 54.9811 82.7502 54.9878Z" fill="#FFD24A"/>
<path d="M60.0002 55C57.2388 55 55.0002 57.2386 55.0002 60L55.0002 77.5C55.0002 80.2614 52.7617 82.5 50.0002 82.5L32.5002 82.5C29.7388 82.5 27.5002 80.2614 27.5002 77.5L27.5002 32.501C27.5002 29.7396 29.7388 27.501 32.5002 27.501L50.0002 27.501C52.7617 27.501 55.0002 25.2624 55.0002 22.501L55.0002 5C55.0002 2.23858 57.2388 -1.12607e-06 60.0002 -1.00536e-06L78.0002 -2.18558e-07C80.7617 -9.78518e-08 83.0002 2.23858 83.0002 5L83.0002 50C83.0002 52.7614 80.7617 55 78.0002 55L60.0002 55Z" fill="#53D083"/>
<path d="M32.5002 82.502C29.7388 82.502 27.5002 80.2634 27.5002 77.502L27.5002 32.502C27.5002 29.7405 25.2617 27.502 22.5002 27.502L5.00025 27.502C2.23882 27.502 0.000247649 29.7405 0.000247528 32.502L0.000244359 105.003C0.000244238 107.764 2.23882 110.003 5.00024 110.003L50.0002 110.003C52.7617 110.003 55.0002 107.764 55.0002 105.003L55.0002 87.502C55.0002 84.7405 52.7617 82.502 50.0002 82.502L32.5002 82.502Z" fill="#FF7700"/>
<ellipse cx="19.9457" cy="34.6416" rx="1.43378" ry="1.91702" fill="#06003A"/>
<ellipse cx="72.7739" cy="63.9697" rx="1.43378" ry="1.42573" fill="#06003A"/>
<ellipse cx="73.145" cy="7.17515" rx="1.43378" ry="1.43394" fill="#06003A"/>
<ellipse cx="15.3642" cy="34.6416" rx="1.43378" ry="1.91702" fill="#06003A"/>
<ellipse cx="65.6957" cy="63.9697" rx="1.43378" ry="1.42573" fill="#06003A"/>
<ellipse cx="66.4819" cy="7.17515" rx="1.43378" ry="1.43394" fill="#06003A"/>
<path d="M14.0117 39.3145C14.7974 40.3611 16.5827 41.0172 18.7228 40.1843" stroke="#06003A" stroke-width="2" stroke-linecap="round"/>
<path d="M68.2161 10.5146C68.9457 11.3355 70.6786 11.4296 71.4313 10.5396" stroke="#06003A" stroke-width="1.5" stroke-linecap="round"/>
<path d="M65.2043 68.1631C65.2043 68.1631 67.1329 69.006 69.5284 69.006C71.6544 69.006 73.4861 68.1631 73.4861 68.1631" stroke="#06003A" stroke-width="1.5" stroke-linecap="round"/>
</svg>
