<svg width="172" height="49" viewBox="0 0 172 49" fill="none" xmlns="http://www.w3.org/2000/svg">
<g clip-path="url(#clip0_2122_1450)">
<path d="M22.6359 2.51123C25.5845 2.51123 28.1031 3.00123 30.1916 3.98123C32.2803 4.92041 34.2663 6.45166 36.1503 8.57498L32.2189 12.6175C30.7035 11.1475 29.2497 10.0654 27.8573 9.37123C26.4649 8.63623 24.7245 8.26873 22.6359 8.26873C20.0559 8.26873 17.6397 9.08541 15.3873 10.7187C13.1759 12.3112 11.4354 14.3529 10.1659 16.8437C8.93735 19.3346 8.32306 21.9071 8.32306 24.5612C8.32306 27.2154 8.93735 29.8083 10.1659 32.34C11.4354 34.8307 13.1759 36.8725 15.3873 38.465C17.6397 40.0575 20.0559 40.8537 22.6359 40.8537C24.6835 40.8537 26.6492 40.4045 28.5331 39.5062C30.4169 38.608 31.9934 37.3625 33.2631 35.77L37.8089 39.8737C35.9249 41.997 33.6726 43.6507 31.0517 44.835C28.4716 46.0192 25.6664 46.6112 22.6359 46.6112C18.6635 46.6112 15.0802 45.6312 11.8859 43.6712C8.69163 41.6705 6.214 38.9957 4.45306 35.6475C2.73305 32.2993 1.87305 28.6242 1.87305 24.6225C1.87305 20.58 2.73305 16.8846 4.45306 13.5362C6.214 10.1471 8.69163 7.47248 11.8859 5.51248C15.0802 3.51166 18.6635 2.51123 22.6359 2.51123ZM46.1017 45.9375V3.06248H52.5517V45.9375H46.1017ZM79.2778 3.06248H91.072V8.57498H79.2778C76.3703 8.57498 73.9949 9.49373 72.152 11.3312C70.3503 13.1687 69.4492 15.5371 69.4492 18.4362V22.785H89.1678V27.9912H69.4492V45.9987H63.0606V18.4362C63.0606 14.1079 64.6578 10.4737 67.852 7.53373C71.0463 4.55291 74.8549 3.06248 79.2778 3.06248ZM113.459 3.06248H125.254V8.57498H113.459C110.552 8.57498 108.177 9.49373 106.334 11.3312C104.532 13.1687 103.631 15.5371 103.631 18.4362V22.785H123.349V27.9912H103.631V45.9987H97.2422V18.4362C97.2422 14.1079 98.8394 10.4737 102.034 7.53373C105.228 4.55291 109.037 3.06248 113.459 3.06248ZM133.529 3.06248H140.839L151.835 21.9887H152.019L163.015 3.06248H168.974L154.415 27.8687V45.9375H147.965V27.8687L133.529 3.06248Z" fill="#06003A"/>
<mask id="mask0_2122_1450" style="mask-type:luminance" maskUnits="userSpaceOnUse" x="0" y="0" width="172" height="49">
<path d="M172 0H0V49H172V0Z" fill="white"/>
<path d="M22.6359 2.51123C25.5845 2.51123 28.1031 3.00123 30.1916 3.98123C32.2803 4.92041 34.2663 6.45166 36.1503 8.57498L32.2189 12.6175C30.7035 11.1475 29.2497 10.0654 27.8573 9.37123C26.4649 8.63623 24.7245 8.26873 22.6359 8.26873C20.0559 8.26873 17.6397 9.08541 15.3873 10.7187C13.1759 12.3112 11.4354 14.3529 10.1659 16.8437C8.93735 19.3346 8.32306 21.9071 8.32306 24.5612C8.32306 27.2154 8.93735 29.8083 10.1659 32.34C11.4354 34.8307 13.1759 36.8725 15.3873 38.465C17.6397 40.0575 20.0559 40.8537 22.6359 40.8537C24.6835 40.8537 26.6492 40.4045 28.5331 39.5062C30.4169 38.608 31.9934 37.3625 33.2631 35.77L37.8089 39.8737C35.9249 41.997 33.6726 43.6507 31.0517 44.835C28.4716 46.0192 25.6664 46.6112 22.6359 46.6112C18.6635 46.6112 15.0802 45.6312 11.8859 43.6712C8.69163 41.6705 6.214 38.9957 4.45306 35.6475C2.73305 32.2993 1.87305 28.6242 1.87305 24.6225C1.87305 20.58 2.73305 16.8846 4.45306 13.5362C6.214 10.1471 8.69163 7.47248 11.8859 5.51248C15.0802 3.51166 18.6635 2.51123 22.6359 2.51123ZM46.1017 45.9375V3.06248H52.5517V45.9375H46.1017ZM79.2778 3.06248H91.072V8.57498H79.2778C76.3703 8.57498 73.9949 9.49373 72.152 11.3312C70.3503 13.1687 69.4492 15.5371 69.4492 18.4362V22.785H89.1678V27.9912H69.4492V45.9987H63.0606V18.4362C63.0606 14.1079 64.6578 10.4737 67.852 7.53373C71.0463 4.55291 74.8549 3.06248 79.2778 3.06248ZM113.459 3.06248H125.254V8.57498H113.459C110.552 8.57498 108.177 9.49373 106.334 11.3312C104.532 13.1687 103.631 15.5371 103.631 18.4362V22.785H123.349V27.9912H103.631V45.9987H97.2422V18.4362C97.2422 14.1079 98.8394 10.4737 102.034 7.53373C105.228 4.55291 109.037 3.06248 113.459 3.06248ZM133.529 3.06248H140.839L151.835 21.9887H152.019L163.015 3.06248H168.974L154.415 27.8687V45.9375H147.965V27.8687L133.529 3.06248Z" fill="black"/>
</mask>
<g mask="url(#mask0_2122_1450)">
<path d="M30.1912 3.98123L29.5372 5.36692L29.5599 5.37709L30.1912 3.98123ZM36.1499 8.57498L37.2522 9.64095L38.2424 8.62273L37.3001 7.56041L36.1499 8.57498ZM32.2185 12.6175L31.1474 13.715L32.2501 14.7846L33.3208 13.6834L32.2185 12.6175ZM27.8569 9.37123L27.1382 10.7249L27.1701 10.7408L27.8569 9.37123ZM15.3869 10.7187L16.2861 11.9601L16.2902 11.9571L15.3869 10.7187ZM10.1655 16.8437L8.79629 16.15L8.78741 16.168L10.1655 16.8437ZM10.1655 32.34L8.78283 33.007L8.79641 33.0336L10.1655 32.34ZM15.3869 38.465L14.4877 39.7065L14.4986 39.7142L15.3869 38.465ZM33.2627 35.77L34.2935 34.635L33.0794 33.539L32.0606 34.8172L33.2627 35.77ZM37.8084 39.8737L38.9587 40.8883L39.9643 39.7546L38.8392 38.7388L37.8084 39.8737ZM31.0513 44.835L30.4174 43.4403L30.409 43.444L31.0513 44.835ZM11.8855 43.6712L11.0685 44.9679L11.0806 44.9752L11.8855 43.6712ZM4.45264 35.6475L3.0857 36.3454L3.09258 36.3586L4.45264 35.6475ZM4.45264 13.5362L3.08902 12.8318L3.08576 12.8382L4.45264 13.5362ZM11.8855 5.51248L12.6904 6.81665L12.7024 6.80912L11.8855 5.51248ZM22.6355 4.04248C25.4186 4.04248 27.7017 4.50566 29.5372 5.36692L30.8452 2.59572C28.5035 1.49698 25.7496 0.97998 22.6355 0.97998V4.04248ZM29.5599 5.37709C31.4088 6.20847 33.2259 7.59045 34.9996 9.58956L37.3001 7.56041C35.3059 5.31284 33.1509 3.63235 30.8225 2.58536L29.5599 5.37709ZM35.0472 7.50902L31.1158 11.5515L33.3208 13.6834L37.2522 9.64095L35.0472 7.50902ZM33.2892 11.52C31.6985 9.97666 30.1178 8.78639 28.5437 8.00165L27.1701 10.7408C28.3808 11.3444 29.7078 12.3183 31.1474 13.715L33.2892 11.52ZM28.5755 8.01794C26.9014 7.13426 24.8961 6.73748 22.6355 6.73748V9.79998C24.552 9.79998 26.0275 10.1386 27.1382 10.7249L28.5755 8.01794ZM22.6355 6.73748C19.7047 6.73748 16.9765 7.67268 14.4837 9.48035L16.2902 11.9571C18.3021 10.4981 20.4063 9.79998 22.6355 9.79998V6.73748ZM14.4878 9.47738C12.0727 11.2165 10.1734 13.4481 8.79629 16.15L11.5346 17.5374C12.6965 15.2577 14.2783 13.406 16.2861 11.9601L14.4878 9.47738ZM8.78741 16.168C7.46003 18.8592 6.78693 21.662 6.78693 24.5612H9.85836C9.85836 22.1522 10.4138 19.81 11.5436 17.5195L8.78741 16.168ZM6.78693 24.5612C6.78693 27.4601 7.45951 30.28 8.78283 33.007L11.5479 31.673C10.414 29.3366 9.85836 26.9707 9.85836 24.5612H6.78693ZM8.79641 33.0336C10.1735 35.7357 12.0727 37.9676 14.4877 39.7065L16.2861 37.2238C14.2783 35.7776 12.6965 33.9261 11.5346 31.6463L8.79641 33.0336ZM14.4986 39.7142C16.9914 41.4766 19.7144 42.385 22.6355 42.385V39.3225C20.3966 39.3225 18.2872 38.6383 16.2752 37.2158L14.4986 39.7142ZM22.6355 42.385C24.9171 42.385 27.1088 41.8827 29.1952 40.8877L27.87 38.1247C26.1889 38.9265 24.4491 39.3225 22.6355 39.3225V42.385ZM29.1952 40.8877C31.2841 39.8915 33.0468 38.5014 34.4649 36.7227L32.0606 34.8172C30.9392 36.2235 29.5488 37.3242 27.87 38.1247L29.1952 40.8877ZM32.232 36.9049L36.7777 41.0087L38.8392 38.7388L34.2935 34.635L32.232 36.9049ZM36.6582 38.8591C34.9195 40.8188 32.8438 42.3439 30.4174 43.4403L31.6849 46.2296C34.5005 44.9575 36.9297 43.1751 38.9587 40.8883L36.6582 38.8591ZM30.409 43.444C28.0437 44.5296 25.4594 45.08 22.6355 45.08V48.1425C25.8725 48.1425 28.8987 47.5085 31.6932 46.226L30.409 43.444ZM22.6355 45.08C18.9298 45.08 15.6281 44.1698 12.6903 42.3672L11.0806 44.9752C14.5315 47.0927 18.3964 48.1425 22.6355 48.1425V45.08ZM12.7024 42.3746C9.73909 40.5184 7.44833 38.0463 5.8127 34.9364L3.09258 36.3586C4.97884 39.9451 7.64327 42.8223 11.0685 44.9679L12.7024 42.3746ZM5.81949 34.9495C4.21749 31.831 3.40836 28.3973 3.40836 24.6225H0.336914C0.336914 28.851 1.24769 32.7675 3.0857 36.3454L5.81949 34.9495ZM3.40836 24.6225C3.40836 20.8042 4.21863 17.3507 5.81949 14.2343L3.08576 12.8382C1.24662 16.4185 0.336914 20.3558 0.336914 24.6225H3.40836ZM5.8162 14.2406C7.45174 11.0928 9.7386 8.62787 12.6904 6.81665L11.0806 4.20838C7.64386 6.31715 4.9754 9.20126 3.08902 12.8318L5.8162 14.2406ZM12.7024 6.80912C15.6387 4.96987 18.9361 4.04248 22.6355 4.04248V0.97998C18.3901 0.97998 14.5208 2.05342 11.0686 4.21585L12.7024 6.80912ZM46.1013 45.9375H44.5656V47.4687H46.1013V45.9375ZM46.1013 3.06248V1.53123H44.5656V3.06248H46.1013ZM52.5513 3.06248H54.087V1.53123H52.5513V3.06248ZM52.5513 45.9375V47.4687H54.087V45.9375H52.5513ZM47.637 45.9375V3.06248H44.5656V45.9375H47.637ZM46.1013 4.59373H52.5513V1.53123H46.1013V4.59373ZM51.0156 3.06248V45.9375H54.087V3.06248H51.0156ZM52.5513 44.4062H46.1013V47.4687H52.5513V44.4062ZM91.0716 3.06248H92.6073V1.53123H91.0716V3.06248ZM91.0716 8.57498V10.1062H92.6073V8.57498H91.0716ZM72.1516 11.3312L71.0659 10.2484L71.0536 10.2607L72.1516 11.3312ZM69.4488 22.785H67.9131V24.3162H69.4488V22.785ZM89.1673 22.785H90.7031V21.2537H89.1673V22.785ZM89.1673 27.9912V29.5225H90.7031V27.9912H89.1673ZM69.4488 27.9912V26.46H67.9131V27.9912H69.4488ZM69.4488 45.9987V47.53H70.9845V45.9987H69.4488ZM63.0602 45.9987H61.5245V47.53H63.0602V45.9987ZM67.8516 7.53373L68.8935 8.65893L68.9011 8.65173L67.8516 7.53373ZM79.2773 4.59373H91.0716V1.53123H79.2773V4.59373ZM89.5359 3.06248V8.57498H92.6073V3.06248H89.5359ZM91.0716 7.04373H79.2773V10.1062H91.0716V7.04373ZM79.2773 7.04373C76.014 7.04373 73.2312 8.0893 71.0659 10.2484L73.2377 12.414C74.758 10.8981 76.7256 10.1062 79.2773 10.1062V7.04373ZM71.0536 10.2607C68.9343 12.4218 67.9131 15.1926 67.9131 18.4362H70.9845C70.9845 15.8815 71.7653 13.9156 73.2497 12.4018L71.0536 10.2607ZM67.9131 18.4362V22.785H70.9845V18.4362H67.9131ZM69.4488 24.3162H89.1673V21.2537H69.4488V24.3162ZM87.6316 22.785V27.9912H90.7031V22.785H87.6316ZM89.1673 26.46H69.4488V29.5225H89.1673V26.46ZM67.9131 27.9912V45.9987H70.9845V27.9912H67.9131ZM69.4488 44.4675H63.0602V47.53H69.4488V44.4675ZM64.5959 45.9987V18.4362H61.5245V45.9987H64.5959ZM64.5959 18.4362C64.5959 14.536 66.0134 11.3095 68.8935 8.65893L66.8101 6.40857C63.3013 9.63798 61.5245 13.6798 61.5245 18.4362H64.5959ZM68.9011 8.65173C71.8073 5.93964 75.2396 4.59373 79.2773 4.59373V1.53123C74.4696 1.53123 70.2845 3.16618 66.8024 6.41574L68.9011 8.65173ZM125.253 3.06248H126.789V1.53123H125.253V3.06248ZM125.253 8.57498V10.1062H126.789V8.57498H125.253ZM106.333 11.3312L105.248 10.2484L105.235 10.2607L106.333 11.3312ZM103.63 22.785H102.095V24.3162H103.63V22.785ZM123.349 22.785H124.885V21.2537H123.349V22.785ZM123.349 27.9912V29.5225H124.885V27.9912H123.349ZM103.63 27.9912V26.46H102.095V27.9912H103.63ZM103.63 45.9987V47.53H105.166V45.9987H103.63ZM97.2418 45.9987H95.7061V47.53H97.2418V45.9987ZM102.033 7.53373L103.075 8.65893L103.083 8.65173L102.033 7.53373ZM113.459 4.59373H125.253V1.53123H113.459V4.59373ZM123.718 3.06248V8.57498H126.789V3.06248H123.718ZM125.253 7.04373H113.459V10.1062H125.253V7.04373ZM113.459 7.04373C110.196 7.04373 107.413 8.0893 105.248 10.2484L107.419 12.414C108.94 10.8981 110.907 10.1062 113.459 10.1062V7.04373ZM105.235 10.2607C103.116 12.4218 102.095 15.1926 102.095 18.4362H105.166C105.166 15.8815 105.947 13.9156 107.431 12.4018L105.235 10.2607ZM102.095 18.4362V22.785H105.166V18.4362H102.095ZM103.63 24.3162H123.349V21.2537H103.63V24.3162ZM121.813 22.785V27.9912H124.885V22.785H121.813ZM123.349 26.46H103.63V29.5225H123.349V26.46ZM102.095 27.9912V45.9987H105.166V27.9912H102.095ZM103.63 44.4675H97.2418V47.53H103.63V44.4675ZM98.7775 45.9987V18.4362H95.7061V45.9987H98.7775ZM98.7775 18.4362C98.7775 14.536 100.195 11.3095 103.075 8.65893L100.992 6.40857C97.4829 9.63798 95.7061 13.6798 95.7061 18.4362H98.7775ZM103.083 8.65173C105.989 5.93964 109.421 4.59373 113.459 4.59373V1.53123C108.651 1.53123 104.466 3.16618 100.984 6.41574L103.083 8.65173ZM133.529 3.06248V1.53123H130.862L132.201 3.83099L133.529 3.06248ZM140.839 3.06248L142.168 2.29493L141.724 1.53123H140.839V3.06248ZM151.835 21.9887L150.506 22.7563L150.949 23.52H151.835V21.9887ZM152.019 21.9887V23.52H152.904L153.348 22.7563L152.019 21.9887ZM163.015 3.06248V1.53123H162.129L161.686 2.29493L163.015 3.06248ZM168.973 3.06248L170.299 3.83586L171.651 1.53123H168.973V3.06248ZM154.415 27.8687L153.089 27.0954L152.879 27.4536V27.8687H154.415ZM154.415 45.9375V47.4687H155.95V45.9375H154.415ZM147.965 45.9375H146.429V47.4687H147.965V45.9375ZM147.965 27.8687H149.5V27.4566L149.293 27.1002L147.965 27.8687ZM133.529 4.59373H140.839V1.53123H133.529V4.59373ZM139.51 3.83004L150.506 22.7563L153.164 21.2212L142.168 2.29493L139.51 3.83004ZM151.835 23.52H152.019V20.4575H151.835V23.52ZM153.348 22.7563L164.344 3.83004L161.686 2.29493L150.69 21.2212L153.348 22.7563ZM163.015 4.59373H168.973V1.53123H163.015V4.59373ZM167.648 2.2891L153.089 27.0954L155.74 28.6421L170.299 3.83586L167.648 2.2891ZM152.879 27.8687V45.9375H155.95V27.8687H152.879ZM154.415 44.4062H147.965V47.4687H154.415V44.4062ZM149.5 45.9375V27.8687H146.429V45.9375H149.5ZM149.293 27.1002L134.857 2.29398L132.201 3.83099L146.636 28.6372L149.293 27.1002Z" fill="#06003A"/>
</g>
</g>
<defs>
<clipPath id="clip0_2122_1450">
<rect width="172" height="49" fill="white"/>
</clipPath>
</defs>
</svg>
