<svg width="24" height="24" viewBox="0 0 24 24" fill="none" xmlns="http://www.w3.org/2000/svg">
<path d="M8.92532 20.0617L2 22L3.93909 15.0774L16.6201 2.46285C16.7634 2.31633 16.9346 2.19991 17.1236 2.12043C17.3125 2.04094 17.5155 2 17.7205 2C17.9255 2 18.1284 2.04094 18.3174 2.12043C18.5063 2.19991 18.6775 2.31633 18.8208 2.46285L21.5448 5.20113C21.689 5.34414 21.8035 5.51429 21.8816 5.70175C21.9598 5.88921 22 6.09028 22 6.29337C22 6.49645 21.9598 6.69752 21.8816 6.88498C21.8035 7.07245 21.689 7.24259 21.5448 7.3856L8.92532 20.0617Z" stroke="white" stroke-width="2" stroke-linecap="round" stroke-linejoin="round"/>
</svg>
